<svg xmlns="http://www.w3.org/2000/svg" version="1.1" xmlns:xlink="http://www.w3.org/1999/xlink" xmlns:svgjs="http://svgjs.com/svgjs" width="1440" height="250" preserveAspectRatio="none" viewBox="0 0 1440 250"><g mask="url(&quot;#SvgjsMask1006&quot;)" fill="none"><rect width="1440" height="250" x="0" y="0" fill="rgba(55, 90, 127, 1)"></rect><path d="M9 250L259 0L593.5 0L343.5 250z" fill="url(#SvgjsLinearGradient1007)"></path><path d="M273.6 250L523.6 0L637.6 0L387.6 250z" fill="url(#SvgjsLinearGradient1007)"></path><path d="M521.2 250L771.2 0L1101.2 0L851.2 250z" fill="url(#SvgjsLinearGradient1007)"></path><path d="M737.8000000000001 250L987.8000000000001 0L1142.3000000000002 0L892.3000000000001 250z" fill="url(#SvgjsLinearGradient1007)"></path><path d="M1401 250L1151 0L933.5 0L1183.5 250z" fill="url(#SvgjsLinearGradient1008)"></path><path d="M1160.4 250L910.4000000000001 0L830.9000000000001 0L1080.9 250z" fill="url(#SvgjsLinearGradient1008)"></path><path d="M942.8 250L692.8 0L356.79999999999995 0L606.8 250z" fill="url(#SvgjsLinearGradient1008)"></path><path d="M689.1999999999999 250L439.19999999999993 0L199.19999999999993 0L449.19999999999993 250z" fill="url(#SvgjsLinearGradient1008)"></path><path d="M1307.4250334869505 250L1440 117.42503348695055L1440 250z" fill="url(#SvgjsLinearGradient1007)"></path><path d="M0 250L132.57496651304945 250L 0 117.42503348695055z" fill="url(#SvgjsLinearGradient1008)"></path></g><defs><mask id="SvgjsMask1006"><rect width="1440" height="250" fill="#ffffff"></rect></mask><linearGradient x1="0%" y1="100%" x2="100%" y2="0%" id="SvgjsLinearGradient1007"><stop stop-color="rgba(60, 106, 155, 1)" offset="0"></stop><stop stop-opacity="0" stop-color="rgba(60, 106, 155, 1)" offset="0.66"></stop></linearGradient><linearGradient x1="100%" y1="100%" x2="0%" y2="0%" id="SvgjsLinearGradient1008"><stop stop-color="rgba(60, 106, 155, 1)" offset="0"></stop><stop stop-opacity="0" stop-color="rgba(60, 106, 155, 1)" offset="0.66"></stop></linearGradient></defs></svg>